<svg xmlns="http://www.w3.org/2000/svg" xmlns:xlink="http://www.w3.org/1999/xlink" width="170" zoomAndPan="magnify" viewBox="0 0 127.5 37.5" height="50" preserveAspectRatio="xMidYMid meet" version="1.0"><defs><g/><clipPath id="cd4b1ddc09"><path d="M 14.820312 6.335938 L 55.53125 6.335938 L 55.53125 32.980469 L 14.820312 32.980469 Z M 14.820312 6.335938 " clip-rule="nonzero"/></clipPath><clipPath id="6bff5bef58"><path d="M 38 34 L 43 34 L 43 36.269531 L 38 36.269531 Z M 38 34 " clip-rule="nonzero"/></clipPath><clipPath id="ace130c845"><path d="M 36.410156 18.507812 L 44.554688 18.507812 L 44.554688 27 L 36.410156 27 Z M 36.410156 18.507812 " clip-rule="nonzero"/></clipPath><clipPath id="612259c3b6"><path d="M 44.4375 20.308594 L 46.800781 20.308594 L 46.800781 23 L 44.4375 23 Z M 44.4375 20.308594 " clip-rule="nonzero"/></clipPath><clipPath id="6e25683144"><path d="M 34.25 22 L 41 22 L 41 25 L 34.25 25 Z M 34.25 22 " clip-rule="nonzero"/></clipPath><clipPath id="0239ce10fa"><path d="M 44.4375 20.308594 L 46.800781 20.308594 L 46.800781 23 L 44.4375 23 Z M 44.4375 20.308594 " clip-rule="nonzero"/></clipPath><clipPath id="14dde43f6f"><path d="M 34.25 22 L 41 22 L 41 25 L 34.25 25 Z M 34.25 22 " clip-rule="nonzero"/></clipPath><clipPath id="c854b5da0f"><path d="M 40 21 L 45 21 L 45 25.488281 L 40 25.488281 Z M 40 21 " clip-rule="nonzero"/></clipPath></defs><g clip-path="url(#cd4b1ddc09)"><path fill="#a6a6a6" d="M 28.980469 7.574219 C 21.085938 10.332031 15.285156 17.691406 14.933594 26.554688 C 14.847656 28.777344 15.109375 30.9375 15.671875 32.972656 L 15.738281 32.953125 C 15.183594 30.945312 14.929688 28.816406 15.027344 26.617188 C 15.050781 26.140625 15.089844 25.667969 15.140625 25.199219 C 16.761719 25.457031 18.40625 25.625 20.078125 25.695312 C 20.230469 27.554688 20.578125 29.378906 21.089844 31.132812 L 21.136719 31.117188 C 20.628906 29.371094 20.289062 27.554688 20.148438 25.699219 C 21.515625 25.757812 22.902344 25.75 24.296875 25.671875 C 25.230469 25.621094 26.15625 25.542969 27.074219 25.433594 C 27.339844 26.5625 27.652344 27.683594 27.996094 28.785156 L 28.023438 28.777344 C 27.679688 27.675781 27.371094 26.554688 27.105469 25.425781 C 29.984375 25.082031 32.769531 24.453125 35.4375 23.570312 L 36.839844 27.554688 L 35.503906 23.546875 C 38.101562 22.679688 40.585938 21.574219 42.933594 20.25 C 43.371094 21.234375 43.785156 22.253906 44.164062 23.292969 L 44.191406 23.285156 C 43.808594 22.242188 43.398438 21.222656 42.960938 20.234375 C 44.847656 19.167969 46.644531 17.964844 48.335938 16.636719 C 49.207031 18.03125 49.964844 19.535156 50.578125 21.113281 L 50.628906 21.097656 C 50.011719 19.507812 49.257812 17.996094 48.386719 16.59375 C 49.53125 15.691406 50.628906 14.730469 51.675781 13.71875 C 53.179688 15.429688 54.402344 17.386719 55.269531 19.519531 L 55.335938 19.496094 C 52.332031 12.101562 45.21875 6.757812 36.722656 6.421875 C 34.585938 6.339844 32.511719 6.578125 30.546875 7.09375 C 30.378906 7.136719 30.210938 7.179688 30.046875 7.226562 C 29.917969 7.257812 29.792969 7.296875 29.667969 7.339844 C 29.660156 7.34375 29.648438 7.347656 29.640625 7.351562 C 29.550781 7.378906 29.464844 7.40625 29.378906 7.4375 C 29.359375 7.445312 29.34375 7.453125 29.324219 7.457031 C 29.210938 7.496094 29.09375 7.535156 28.980469 7.574219 Z M 29.679688 7.703125 C 29.730469 7.6875 29.777344 7.671875 29.828125 7.65625 L 30.675781 10.058594 C 29.425781 10.460938 28.167969 10.769531 26.90625 10.996094 C 27.535156 9.316406 28.476562 8.179688 29.679688 7.703125 Z M 30.164062 7.554688 C 30.195312 7.546875 30.222656 7.539062 30.253906 7.53125 C 31.125 7.347656 32.105469 7.476562 33.1875 7.957031 C 33.570312 8.128906 33.957031 8.34375 34.34375 8.589844 C 33.304688 9.089844 32.230469 9.535156 31.113281 9.914062 C 31.066406 9.929688 31.015625 9.945312 30.964844 9.960938 Z M 28.242188 8.285156 C 27.59375 8.941406 27.070312 9.871094 26.6875 11.03125 C 25.886719 11.167969 25.085938 11.269531 24.285156 11.335938 C 25.421875 10.042969 26.757812 9.007812 28.242188 8.285156 Z M 31.746094 7.210938 C 32.894531 7.046875 34.097656 7.046875 35.339844 7.226562 C 35.722656 7.28125 36.105469 7.355469 36.484375 7.441406 C 35.855469 7.8125 35.207031 8.164062 34.542969 8.492188 C 34.058594 8.15625 33.578125 7.875 33.097656 7.65625 C 32.628906 7.441406 32.175781 7.292969 31.746094 7.210938 Z M 26.171875 9.171875 C 25.34375 9.792969 24.582031 10.53125 23.898438 11.367188 C 23.519531 11.390625 23.140625 11.410156 22.761719 11.421875 C 23.816406 10.566406 24.960938 9.8125 26.171875 9.171875 Z M 34.160156 6.804688 C 35.027344 6.726562 35.90625 6.699219 36.800781 6.730469 C 37.054688 6.738281 37.304688 6.753906 37.558594 6.769531 C 37.3125 6.933594 37.0625 7.089844 36.808594 7.246094 C 36.296875 7.109375 35.78125 7 35.257812 6.921875 C 34.890625 6.867188 34.523438 6.828125 34.160156 6.804688 Z M 22.429688 11.695312 C 22.84375 11.6875 23.261719 11.671875 23.675781 11.644531 C 22.898438 12.648438 22.222656 13.785156 21.675781 15.035156 C 20.902344 15.003906 20.136719 14.949219 19.375 14.863281 C 20.28125 13.703125 21.304688 12.640625 22.429688 11.695312 Z M 37.992188 6.804688 C 39.730469 6.964844 41.402344 7.328125 42.980469 7.878906 C 42.417969 8.339844 41.839844 8.785156 41.246094 9.207031 C 39.945312 8.390625 38.574219 7.757812 37.160156 7.34375 C 37.441406 7.167969 37.71875 6.988281 37.992188 6.804688 Z M 24.035156 11.625 C 24.035156 11.625 24.039062 11.625 24.039062 11.625 C 24.890625 11.5625 25.742188 11.460938 26.597656 11.320312 C 26.289062 12.351562 26.082031 13.550781 25.988281 14.898438 C 24.613281 15.035156 23.246094 15.082031 21.890625 15.039062 C 22.480469 13.773438 23.203125 12.625 24.035156 11.625 Z M 36.855469 7.53125 C 38.320312 7.910156 39.738281 8.515625 41.085938 9.320312 C 39.992188 10.089844 38.84375 10.789062 37.644531 11.417969 C 36.707031 10.308594 35.75 9.378906 34.789062 8.671875 C 35.496094 8.316406 36.1875 7.9375 36.855469 7.53125 Z M 26.804688 11.285156 C 28.125 11.058594 29.449219 10.734375 30.761719 10.308594 L 31.96875 13.726562 C 30.996094 14.015625 30 14.261719 28.984375 14.460938 C 28.019531 14.648438 27.054688 14.792969 26.097656 14.890625 C 26.214844 13.519531 26.453125 12.308594 26.804688 11.285156 Z M 34.601562 8.761719 C 35.589844 9.441406 36.582031 10.359375 37.550781 11.46875 C 35.859375 12.347656 34.074219 13.085938 32.199219 13.65625 L 31.050781 10.214844 C 31.097656 10.199219 31.148438 10.183594 31.195312 10.167969 C 32.375 9.765625 33.511719 9.292969 34.601562 8.761719 Z M 19.273438 14.996094 C 20.046875 15.078125 20.832031 15.132812 21.617188 15.15625 C 20.980469 16.636719 20.515625 18.273438 20.25 20.035156 C 19.015625 19.96875 17.789062 19.839844 16.578125 19.648438 C 17.273438 17.976562 18.183594 16.417969 19.273438 14.996094 Z M 43.105469 7.921875 C 44.625 8.460938 46.054688 9.171875 47.382812 10.027344 C 46.597656 10.777344 45.773438 11.492188 44.921875 12.171875 C 43.808594 11.050781 42.605469 10.070312 41.335938 9.265625 C 41.941406 8.835938 42.535156 8.390625 43.105469 7.921875 Z M 21.832031 15.164062 C 23.203125 15.195312 24.589844 15.144531 25.980469 15 C 25.886719 16.464844 25.925781 18.101562 26.109375 19.878906 C 24.183594 20.085938 22.265625 20.136719 20.371094 20.042969 C 20.660156 18.273438 21.160156 16.636719 21.832031 15.164062 Z M 41.175781 9.375 C 42.472656 10.160156 43.695312 11.128906 44.832031 12.246094 C 43.433594 13.351562 41.945312 14.363281 40.375 15.261719 C 39.523438 13.855469 38.621094 12.582031 37.699219 11.484375 C 38.910156 10.851562 40.070312 10.144531 41.175781 9.375 Z M 26.089844 14.988281 C 27.019531 14.890625 27.953125 14.75 28.890625 14.566406 C 29.949219 14.359375 30.984375 14.105469 31.996094 13.800781 L 33.570312 18.28125 C 32.746094 18.546875 31.90625 18.789062 31.050781 19.003906 C 29.421875 19.40625 27.792969 19.695312 26.167969 19.871094 C 25.996094 18.085938 25.972656 16.449219 26.089844 14.988281 Z M 37.605469 11.53125 C 38.546875 12.617188 39.460938 13.882812 40.328125 15.289062 C 38.261719 16.46875 36.054688 17.457031 33.726562 18.230469 L 32.222656 13.730469 C 34.105469 13.152344 35.90625 12.414062 37.605469 11.53125 Z M 16.503906 19.832031 C 17.730469 20.015625 18.972656 20.140625 20.226562 20.199219 C 20.015625 21.660156 19.941406 23.210938 20.019531 24.824219 C 20.03125 25.074219 20.046875 25.320312 20.066406 25.566406 C 18.40625 25.484375 16.769531 25.304688 15.160156 25.03125 C 15.382812 23.214844 15.84375 21.472656 16.503906 19.832031 Z M 47.496094 10.101562 C 48.992188 11.078125 50.34375 12.242188 51.527344 13.558594 C 50.5 14.570312 49.417969 15.53125 48.289062 16.4375 C 47.320312 14.898438 46.214844 13.488281 45.003906 12.253906 C 45.867188 11.570312 46.699219 10.851562 47.496094 10.101562 Z M 20.34375 20.203125 C 22.25 20.285156 24.183594 20.21875 26.121094 20 C 26.214844 20.84375 26.335938 21.71875 26.492188 22.625 C 26.648438 23.527344 26.835938 24.429688 27.046875 25.328125 C 26.1875 25.429688 25.316406 25.503906 24.4375 25.550781 C 22.992188 25.628906 21.558594 25.632812 20.136719 25.566406 C 20.121094 25.34375 20.105469 25.121094 20.097656 24.894531 C 20.023438 23.253906 20.113281 21.683594 20.34375 20.203125 Z M 44.914062 12.328125 C 46.140625 13.550781 47.261719 14.945312 48.234375 16.476562 C 46.558594 17.816406 44.777344 19.03125 42.902344 20.105469 C 42.140625 18.40625 41.308594 16.804688 40.421875 15.339844 C 42.003906 14.4375 43.503906 13.433594 44.914062 12.328125 Z M 26.179688 19.992188 C 27.765625 19.808594 29.355469 19.523438 30.945312 19.128906 C 31.847656 18.90625 32.730469 18.648438 33.601562 18.363281 L 35.398438 23.46875 C 32.742188 24.355469 29.957031 24.984375 27.078125 25.324219 C 26.875 24.453125 26.699219 23.578125 26.546875 22.703125 C 26.386719 21.765625 26.265625 20.863281 26.179688 19.992188 Z M 40.375 15.367188 C 41.269531 16.820312 42.109375 18.421875 42.871094 20.121094 C 40.539062 21.457031 38.0625 22.574219 35.46875 23.445312 L 33.753906 18.3125 C 36.089844 17.535156 38.300781 16.542969 40.375 15.367188 Z M 40.375 15.367188 " fill-opacity="1" fill-rule="nonzero"/></g><g clip-path="url(#6bff5bef58)"><path fill="#292f33" d="M 42.367188 35.609375 C 42.367188 35.707031 42.316406 35.800781 42.214844 35.890625 C 42.113281 35.984375 41.972656 36.0625 41.785156 36.132812 C 41.601562 36.203125 41.386719 36.257812 41.144531 36.292969 C 40.898438 36.332031 40.648438 36.351562 40.382812 36.351562 C 40.121094 36.351562 39.867188 36.332031 39.625 36.292969 C 39.382812 36.257812 39.167969 36.203125 38.980469 36.132812 C 38.796875 36.0625 38.652344 35.984375 38.550781 35.890625 C 38.453125 35.800781 38.402344 35.707031 38.402344 35.609375 C 38.402344 35.507812 38.453125 35.414062 38.550781 35.324219 C 38.652344 35.230469 38.796875 35.152344 38.980469 35.082031 C 39.167969 35.011719 39.382812 34.957031 39.625 34.921875 C 39.867188 34.882812 40.121094 34.863281 40.382812 34.863281 C 40.648438 34.863281 40.898438 34.882812 41.144531 34.921875 C 41.386719 34.957031 41.601562 35.011719 41.785156 35.082031 C 41.972656 35.152344 42.113281 35.230469 42.214844 35.324219 C 42.316406 35.414062 42.367188 35.507812 42.367188 35.609375 Z M 42.367188 35.609375 " fill-opacity="1" fill-rule="nonzero"/></g><path fill="#99aab5" d="M 38.570312 23.824219 C 38.570312 23.824219 39.835938 35.855469 40.382812 35.855469 C 40.933594 35.855469 42.199219 23.824219 42.199219 23.824219 Z M 38.570312 23.824219 " fill-opacity="1" fill-rule="nonzero"/><g clip-path="url(#ace130c845)"><path fill="#f65556" d="M 44.347656 22.472656 C 44.347656 22.734375 44.324219 22.992188 44.273438 23.246094 C 44.222656 23.5 44.148438 23.75 44.046875 23.988281 C 43.949219 24.230469 43.824219 24.457031 43.679688 24.675781 C 43.535156 24.890625 43.371094 25.09375 43.1875 25.277344 C 43.003906 25.460938 42.804688 25.625 42.585938 25.769531 C 42.371094 25.914062 42.140625 26.035156 41.902344 26.136719 C 41.660156 26.234375 41.414062 26.3125 41.15625 26.363281 C 40.902344 26.414062 40.644531 26.4375 40.382812 26.4375 C 40.125 26.4375 39.867188 26.414062 39.609375 26.363281 C 39.355469 26.3125 39.105469 26.234375 38.867188 26.136719 C 38.625 26.035156 38.398438 25.914062 38.179688 25.769531 C 37.964844 25.625 37.765625 25.460938 37.582031 25.277344 C 37.394531 25.09375 37.230469 24.890625 37.085938 24.675781 C 36.941406 24.457031 36.820312 24.230469 36.71875 23.988281 C 36.621094 23.75 36.546875 23.5 36.496094 23.246094 C 36.445312 22.992188 36.417969 22.734375 36.417969 22.472656 C 36.417969 22.210938 36.445312 21.953125 36.496094 21.699219 C 36.546875 21.441406 36.621094 21.195312 36.71875 20.953125 C 36.820312 20.714844 36.941406 20.484375 37.085938 20.269531 C 37.230469 20.050781 37.394531 19.851562 37.582031 19.667969 C 37.765625 19.484375 37.964844 19.320312 38.179688 19.175781 C 38.398438 19.03125 38.625 18.910156 38.867188 18.808594 C 39.105469 18.710938 39.355469 18.632812 39.609375 18.582031 C 39.867188 18.53125 40.125 18.507812 40.382812 18.507812 C 40.644531 18.507812 40.902344 18.53125 41.15625 18.582031 C 41.414062 18.632812 41.660156 18.710938 41.902344 18.808594 C 42.140625 18.910156 42.371094 19.03125 42.585938 19.175781 C 42.804688 19.320312 43.003906 19.484375 43.1875 19.667969 C 43.371094 19.851562 43.535156 20.050781 43.679688 20.269531 C 43.824219 20.484375 43.949219 20.714844 44.046875 20.953125 C 44.148438 21.195312 44.222656 21.441406 44.273438 21.699219 C 44.324219 21.953125 44.347656 22.210938 44.347656 22.472656 Z M 44.347656 22.472656 " fill-opacity="1" fill-rule="nonzero"/></g><g fill="#ff8d55" fill-opacity="0.4"><g transform="translate(11.441487, 33.157106)"><g><path d="M 10.375 -12.359375 L 10.375 -10.0625 L 6.875 -10.0625 L 6.875 0 L 4.578125 0 L 4.578125 -10.0625 L 1.078125 -10.0625 L 1.078125 -12.359375 Z M 10.375 -12.359375 "/></g></g></g><g fill="#ff8d55" fill-opacity="0.4"><g transform="translate(22.887766, 33.157106)"><g><path d="M 10.734375 -7.71875 C 10.734375 -6.945312 10.628906 -6.234375 10.421875 -5.578125 C 10.210938 -4.921875 9.847656 -4.378906 9.328125 -3.953125 L 10.734375 0 L 8.3125 0 L 7.203125 -3.125 C 6.953125 -3.09375 6.6875 -3.078125 6.40625 -3.078125 L 3.40625 -3.078125 L 3.40625 0 L 1.078125 0 L 1.078125 -12.359375 L 6.40625 -12.359375 C 7.457031 -12.359375 8.300781 -12.148438 8.9375 -11.734375 C 9.570312 -11.316406 10.03125 -10.757812 10.3125 -10.0625 C 10.59375 -9.363281 10.734375 -8.582031 10.734375 -7.71875 Z M 3.40625 -5.390625 L 6.40625 -5.390625 C 7.207031 -5.390625 7.734375 -5.554688 7.984375 -5.890625 C 8.273438 -6.234375 8.421875 -6.84375 8.421875 -7.71875 C 8.421875 -8.5625 8.269531 -9.171875 7.96875 -9.546875 C 7.9375 -9.585938 7.867188 -9.648438 7.765625 -9.734375 C 7.671875 -9.816406 7.515625 -9.890625 7.296875 -9.953125 C 7.085938 -10.023438 6.789062 -10.0625 6.40625 -10.0625 L 3.40625 -10.0625 Z M 3.40625 -5.390625 "/></g></g></g><g fill="#f65556" fill-opacity="1"><g transform="translate(12.342907, 32.811083)"><g><path d="M 10.375 -12.359375 L 10.375 -10.0625 L 6.875 -10.0625 L 6.875 0 L 4.578125 0 L 4.578125 -10.0625 L 1.078125 -10.0625 L 1.078125 -12.359375 Z M 10.375 -12.359375 "/></g></g></g><g fill="#f65556" fill-opacity="1"><g transform="translate(23.789186, 32.811083)"><g><path d="M 10.734375 -7.71875 C 10.734375 -6.945312 10.628906 -6.234375 10.421875 -5.578125 C 10.210938 -4.921875 9.847656 -4.378906 9.328125 -3.953125 L 10.734375 0 L 8.3125 0 L 7.203125 -3.125 C 6.953125 -3.09375 6.6875 -3.078125 6.40625 -3.078125 L 3.40625 -3.078125 L 3.40625 0 L 1.078125 0 L 1.078125 -12.359375 L 6.40625 -12.359375 C 7.457031 -12.359375 8.300781 -12.148438 8.9375 -11.734375 C 9.570312 -11.316406 10.03125 -10.757812 10.3125 -10.0625 C 10.59375 -9.363281 10.734375 -8.582031 10.734375 -7.71875 Z M 3.40625 -5.390625 L 6.40625 -5.390625 C 7.207031 -5.390625 7.734375 -5.554688 7.984375 -5.890625 C 8.273438 -6.234375 8.421875 -6.84375 8.421875 -7.71875 C 8.421875 -8.5625 8.269531 -9.171875 7.96875 -9.546875 C 7.9375 -9.585938 7.867188 -9.648438 7.765625 -9.734375 C 7.671875 -9.816406 7.515625 -9.890625 7.296875 -9.953125 C 7.085938 -10.023438 6.789062 -10.0625 6.40625 -10.0625 L 3.40625 -10.0625 Z M 3.40625 -5.390625 "/></g></g></g><g fill="#ff8d55" fill-opacity="0.4"><g transform="translate(45.010834, 33.905056)"><g><path d="M 6.40625 -12.359375 C 7.457031 -12.359375 8.300781 -12.148438 8.9375 -11.734375 C 9.570312 -11.316406 10.03125 -10.757812 10.3125 -10.0625 C 10.59375 -9.363281 10.734375 -8.582031 10.734375 -7.71875 C 10.734375 -6.863281 10.597656 -6.082031 10.328125 -5.375 C 10.066406 -4.675781 9.617188 -4.117188 8.984375 -3.703125 C 8.359375 -3.285156 7.5 -3.078125 6.40625 -3.078125 L 3.40625 -3.078125 L 3.40625 0 L 1.078125 0 L 1.078125 -12.359375 Z M 7.984375 -5.890625 C 8.273438 -6.234375 8.421875 -6.84375 8.421875 -7.71875 C 8.421875 -8.5625 8.269531 -9.171875 7.96875 -9.546875 C 7.9375 -9.585938 7.867188 -9.648438 7.765625 -9.734375 C 7.671875 -9.816406 7.515625 -9.890625 7.296875 -9.953125 C 7.085938 -10.023438 6.789062 -10.0625 6.40625 -10.0625 L 3.40625 -10.0625 L 3.40625 -5.390625 L 6.40625 -5.390625 C 7.207031 -5.390625 7.734375 -5.554688 7.984375 -5.890625 Z M 7.984375 -5.890625 "/></g></g></g><g fill="#f65556" fill-opacity="1"><g transform="translate(45.912255, 33.559034)"><g><path d="M 6.40625 -12.359375 C 7.457031 -12.359375 8.300781 -12.148438 8.9375 -11.734375 C 9.570312 -11.316406 10.03125 -10.757812 10.3125 -10.0625 C 10.59375 -9.363281 10.734375 -8.582031 10.734375 -7.71875 C 10.734375 -6.863281 10.597656 -6.082031 10.328125 -5.375 C 10.066406 -4.675781 9.617188 -4.117188 8.984375 -3.703125 C 8.359375 -3.285156 7.5 -3.078125 6.40625 -3.078125 L 3.40625 -3.078125 L 3.40625 0 L 1.078125 0 L 1.078125 -12.359375 Z M 7.984375 -5.890625 C 8.273438 -6.234375 8.421875 -6.84375 8.421875 -7.71875 C 8.421875 -8.5625 8.269531 -9.171875 7.96875 -9.546875 C 7.9375 -9.585938 7.867188 -9.648438 7.765625 -9.734375 C 7.671875 -9.816406 7.515625 -9.890625 7.296875 -9.953125 C 7.085938 -10.023438 6.789062 -10.0625 6.40625 -10.0625 L 3.40625 -10.0625 L 3.40625 -5.390625 L 6.40625 -5.390625 C 7.207031 -5.390625 7.734375 -5.554688 7.984375 -5.890625 Z M 7.984375 -5.890625 "/></g></g></g><g fill="#ff8d55" fill-opacity="0.4"><g transform="translate(57.041278, 34.229167)"><g><path d="M 10.71875 -8.828125 C 10.71875 -8.359375 10.65625 -7.914062 10.53125 -7.5 C 10.40625 -7.09375 10.191406 -6.734375 9.890625 -6.421875 C 10.191406 -6.109375 10.40625 -5.75 10.53125 -5.34375 C 10.65625 -4.9375 10.71875 -4.503906 10.71875 -4.046875 C 10.71875 -3.566406 10.644531 -3.085938 10.5 -2.609375 C 10.351562 -2.128906 10.113281 -1.691406 9.78125 -1.296875 C 9.445312 -0.898438 9.003906 -0.582031 8.453125 -0.34375 C 7.898438 -0.113281 7.210938 0 6.390625 0 L 1.078125 0 L 1.078125 -12.359375 L 6.390625 -12.359375 C 7.453125 -12.359375 8.296875 -12.195312 8.921875 -11.875 C 9.554688 -11.5625 10.015625 -11.140625 10.296875 -10.609375 C 10.578125 -10.078125 10.71875 -9.484375 10.71875 -8.828125 Z M 3.40625 -10.0625 L 3.40625 -7.59375 L 7.203125 -7.59375 C 7.472656 -7.59375 7.695312 -7.65625 7.875 -7.78125 C 8.050781 -7.914062 8.1875 -8.078125 8.28125 -8.265625 C 8.375 -8.460938 8.421875 -8.648438 8.421875 -8.828125 C 8.421875 -9.117188 8.304688 -9.394531 8.078125 -9.65625 C 7.847656 -9.925781 7.554688 -10.0625 7.203125 -10.0625 Z M 6.96875 -2.3125 C 7.195312 -2.3125 7.421875 -2.363281 7.640625 -2.46875 C 7.859375 -2.582031 8.039062 -2.75 8.1875 -2.96875 C 8.34375 -3.1875 8.421875 -3.460938 8.421875 -3.796875 C 8.421875 -4.316406 8.269531 -4.691406 7.96875 -4.921875 C 7.664062 -5.160156 7.332031 -5.28125 6.96875 -5.28125 L 3.40625 -5.28125 L 3.40625 -2.3125 Z M 6.96875 -2.3125 "/></g></g></g><g fill="#ff8d55" fill-opacity="0.4"><g transform="translate(68.842839, 34.229167)"><g><path d="M 8.1875 -12.359375 L 10.5 -12.359375 L 10.5 -4.28125 C 10.5 -3.65625 10.378906 -3.066406 10.140625 -2.515625 C 9.898438 -1.960938 9.570312 -1.476562 9.15625 -1.0625 C 8.738281 -0.644531 8.253906 -0.316406 7.703125 -0.078125 C 7.160156 0.160156 6.578125 0.28125 5.953125 0.28125 L 5.640625 0.28125 C 5.015625 0.28125 4.425781 0.160156 3.875 -0.078125 C 3.320312 -0.316406 2.835938 -0.644531 2.421875 -1.0625 C 2.003906 -1.476562 1.675781 -1.960938 1.4375 -2.515625 C 1.195312 -3.066406 1.078125 -3.65625 1.078125 -4.28125 L 1.078125 -12.359375 L 3.40625 -12.359375 L 3.40625 -4.28125 C 3.40625 -3.863281 3.503906 -3.484375 3.703125 -3.140625 C 3.898438 -2.796875 4.164062 -2.523438 4.5 -2.328125 C 4.84375 -2.128906 5.222656 -2.03125 5.640625 -2.03125 L 5.953125 -2.03125 C 6.359375 -2.03125 6.734375 -2.128906 7.078125 -2.328125 C 7.421875 -2.523438 7.691406 -2.796875 7.890625 -3.140625 C 8.085938 -3.484375 8.1875 -3.863281 8.1875 -4.28125 Z M 8.1875 -12.359375 "/></g></g></g><g fill="#ff8d55" fill-opacity="0.4"><g transform="translate(80.412694, 34.229167)"><g><path d="M 5.125 -12.359375 C 5.925781 -12.359375 6.660156 -12.195312 7.328125 -11.875 C 8.003906 -11.5625 8.59375 -11.117188 9.09375 -10.546875 C 9.601562 -9.984375 10 -9.328125 10.28125 -8.578125 C 10.5625 -7.835938 10.703125 -7.039062 10.703125 -6.1875 C 10.703125 -5.332031 10.566406 -4.53125 10.296875 -3.78125 C 10.023438 -3.03125 9.640625 -2.367188 9.140625 -1.796875 C 8.640625 -1.234375 8.046875 -0.789062 7.359375 -0.46875 C 6.679688 -0.15625 5.9375 0 5.125 0 L 1.078125 0 L 1.078125 -12.359375 Z M 5.125 -10.0625 L 3.390625 -10.0625 L 3.390625 -2.296875 L 5.125 -2.296875 C 5.707031 -2.296875 6.179688 -2.410156 6.546875 -2.640625 C 6.921875 -2.867188 7.210938 -3.101562 7.421875 -3.34375 C 7.742188 -3.695312 7.988281 -4.117188 8.15625 -4.609375 C 8.320312 -5.097656 8.40625 -5.625 8.40625 -6.1875 C 8.40625 -6.914062 8.257812 -7.570312 7.96875 -8.15625 C 7.6875 -8.738281 7.296875 -9.203125 6.796875 -9.546875 C 6.304688 -9.890625 5.75 -10.0625 5.125 -10.0625 Z M 5.125 -10.0625 "/></g></g></g><g fill="#ff8d55" fill-opacity="0.4"><g transform="translate(92.198808, 34.229167)"><g><path d="M 5.125 -12.359375 C 5.925781 -12.359375 6.660156 -12.195312 7.328125 -11.875 C 8.003906 -11.5625 8.59375 -11.117188 9.09375 -10.546875 C 9.601562 -9.984375 10 -9.328125 10.28125 -8.578125 C 10.5625 -7.835938 10.703125 -7.039062 10.703125 -6.1875 C 10.703125 -5.332031 10.566406 -4.53125 10.296875 -3.78125 C 10.023438 -3.03125 9.640625 -2.367188 9.140625 -1.796875 C 8.640625 -1.234375 8.046875 -0.789062 7.359375 -0.46875 C 6.679688 -0.15625 5.9375 0 5.125 0 L 1.078125 0 L 1.078125 -12.359375 Z M 5.125 -10.0625 L 3.390625 -10.0625 L 3.390625 -2.296875 L 5.125 -2.296875 C 5.707031 -2.296875 6.179688 -2.410156 6.546875 -2.640625 C 6.921875 -2.867188 7.210938 -3.101562 7.421875 -3.34375 C 7.742188 -3.695312 7.988281 -4.117188 8.15625 -4.609375 C 8.320312 -5.097656 8.40625 -5.625 8.40625 -6.1875 C 8.40625 -6.914062 8.257812 -7.570312 7.96875 -8.15625 C 7.6875 -8.738281 7.296875 -9.203125 6.796875 -9.546875 C 6.304688 -9.890625 5.75 -10.0625 5.125 -10.0625 Z M 5.125 -10.0625 "/></g></g></g><g fill="#f65556" fill-opacity="1"><g transform="translate(57.942699, 33.883145)"><g><path d="M 10.71875 -8.828125 C 10.71875 -8.359375 10.65625 -7.914062 10.53125 -7.5 C 10.40625 -7.09375 10.191406 -6.734375 9.890625 -6.421875 C 10.191406 -6.109375 10.40625 -5.75 10.53125 -5.34375 C 10.65625 -4.9375 10.71875 -4.503906 10.71875 -4.046875 C 10.71875 -3.566406 10.644531 -3.085938 10.5 -2.609375 C 10.351562 -2.128906 10.113281 -1.691406 9.78125 -1.296875 C 9.445312 -0.898438 9.003906 -0.582031 8.453125 -0.34375 C 7.898438 -0.113281 7.210938 0 6.390625 0 L 1.078125 0 L 1.078125 -12.359375 L 6.390625 -12.359375 C 7.453125 -12.359375 8.296875 -12.195312 8.921875 -11.875 C 9.554688 -11.5625 10.015625 -11.140625 10.296875 -10.609375 C 10.578125 -10.078125 10.71875 -9.484375 10.71875 -8.828125 Z M 3.40625 -10.0625 L 3.40625 -7.59375 L 7.203125 -7.59375 C 7.472656 -7.59375 7.695312 -7.65625 7.875 -7.78125 C 8.050781 -7.914062 8.1875 -8.078125 8.28125 -8.265625 C 8.375 -8.460938 8.421875 -8.648438 8.421875 -8.828125 C 8.421875 -9.117188 8.304688 -9.394531 8.078125 -9.65625 C 7.847656 -9.925781 7.554688 -10.0625 7.203125 -10.0625 Z M 6.96875 -2.3125 C 7.195312 -2.3125 7.421875 -2.363281 7.640625 -2.46875 C 7.859375 -2.582031 8.039062 -2.75 8.1875 -2.96875 C 8.34375 -3.1875 8.421875 -3.460938 8.421875 -3.796875 C 8.421875 -4.316406 8.269531 -4.691406 7.96875 -4.921875 C 7.664062 -5.160156 7.332031 -5.28125 6.96875 -5.28125 L 3.40625 -5.28125 L 3.40625 -2.3125 Z M 6.96875 -2.3125 "/></g></g></g><g fill="#f65556" fill-opacity="1"><g transform="translate(69.74426, 33.883145)"><g><path d="M 8.1875 -12.359375 L 10.5 -12.359375 L 10.5 -4.28125 C 10.5 -3.65625 10.378906 -3.066406 10.140625 -2.515625 C 9.898438 -1.960938 9.570312 -1.476562 9.15625 -1.0625 C 8.738281 -0.644531 8.253906 -0.316406 7.703125 -0.078125 C 7.160156 0.160156 6.578125 0.28125 5.953125 0.28125 L 5.640625 0.28125 C 5.015625 0.28125 4.425781 0.160156 3.875 -0.078125 C 3.320312 -0.316406 2.835938 -0.644531 2.421875 -1.0625 C 2.003906 -1.476562 1.675781 -1.960938 1.4375 -2.515625 C 1.195312 -3.066406 1.078125 -3.65625 1.078125 -4.28125 L 1.078125 -12.359375 L 3.40625 -12.359375 L 3.40625 -4.28125 C 3.40625 -3.863281 3.503906 -3.484375 3.703125 -3.140625 C 3.898438 -2.796875 4.164062 -2.523438 4.5 -2.328125 C 4.84375 -2.128906 5.222656 -2.03125 5.640625 -2.03125 L 5.953125 -2.03125 C 6.359375 -2.03125 6.734375 -2.128906 7.078125 -2.328125 C 7.421875 -2.523438 7.691406 -2.796875 7.890625 -3.140625 C 8.085938 -3.484375 8.1875 -3.863281 8.1875 -4.28125 Z M 8.1875 -12.359375 "/></g></g></g><g fill="#f65556" fill-opacity="1"><g transform="translate(81.314115, 33.883145)"><g><path d="M 5.125 -12.359375 C 5.925781 -12.359375 6.660156 -12.195312 7.328125 -11.875 C 8.003906 -11.5625 8.59375 -11.117188 9.09375 -10.546875 C 9.601562 -9.984375 10 -9.328125 10.28125 -8.578125 C 10.5625 -7.835938 10.703125 -7.039062 10.703125 -6.1875 C 10.703125 -5.332031 10.566406 -4.53125 10.296875 -3.78125 C 10.023438 -3.03125 9.640625 -2.367188 9.140625 -1.796875 C 8.640625 -1.234375 8.046875 -0.789062 7.359375 -0.46875 C 6.679688 -0.15625 5.9375 0 5.125 0 L 1.078125 0 L 1.078125 -12.359375 Z M 5.125 -10.0625 L 3.390625 -10.0625 L 3.390625 -2.296875 L 5.125 -2.296875 C 5.707031 -2.296875 6.179688 -2.410156 6.546875 -2.640625 C 6.921875 -2.867188 7.210938 -3.101562 7.421875 -3.34375 C 7.742188 -3.695312 7.988281 -4.117188 8.15625 -4.609375 C 8.320312 -5.097656 8.40625 -5.625 8.40625 -6.1875 C 8.40625 -6.914062 8.257812 -7.570312 7.96875 -8.15625 C 7.6875 -8.738281 7.296875 -9.203125 6.796875 -9.546875 C 6.304688 -9.890625 5.75 -10.0625 5.125 -10.0625 Z M 5.125 -10.0625 "/></g></g></g><g fill="#f65556" fill-opacity="1"><g transform="translate(93.100229, 33.883145)"><g><path d="M 5.125 -12.359375 C 5.925781 -12.359375 6.660156 -12.195312 7.328125 -11.875 C 8.003906 -11.5625 8.59375 -11.117188 9.09375 -10.546875 C 9.601562 -9.984375 10 -9.328125 10.28125 -8.578125 C 10.5625 -7.835938 10.703125 -7.039062 10.703125 -6.1875 C 10.703125 -5.332031 10.566406 -4.53125 10.296875 -3.78125 C 10.023438 -3.03125 9.640625 -2.367188 9.140625 -1.796875 C 8.640625 -1.234375 8.046875 -0.789062 7.359375 -0.46875 C 6.679688 -0.15625 5.9375 0 5.125 0 L 1.078125 0 L 1.078125 -12.359375 Z M 5.125 -10.0625 L 3.390625 -10.0625 L 3.390625 -2.296875 L 5.125 -2.296875 C 5.707031 -2.296875 6.179688 -2.410156 6.546875 -2.640625 C 6.921875 -2.867188 7.210938 -3.101562 7.421875 -3.34375 C 7.742188 -3.695312 7.988281 -4.117188 8.15625 -4.609375 C 8.320312 -5.097656 8.40625 -5.625 8.40625 -6.1875 C 8.40625 -6.914062 8.257812 -7.570312 7.96875 -8.15625 C 7.6875 -8.738281 7.296875 -9.203125 6.796875 -9.546875 C 6.304688 -9.890625 5.75 -10.0625 5.125 -10.0625 Z M 5.125 -10.0625 "/></g></g></g><g clip-path="url(#612259c3b6)"><path fill="#1d1d1b" d="M 44.453125 22.691406 C 44.460938 22.699219 44.464844 22.703125 44.46875 22.710938 C 44.492188 22.742188 44.5 22.773438 44.507812 22.804688 C 44.523438 22.859375 44.519531 22.917969 44.503906 22.96875 C 44.5 22.980469 44.496094 22.988281 44.492188 22.996094 C 44.492188 23 44.492188 23 44.492188 23 C 44.492188 23 44.492188 23 44.496094 22.996094 C 44.515625 22.988281 44.535156 22.980469 44.558594 22.96875 C 44.625 22.941406 44.691406 22.914062 44.753906 22.882812 C 44.925781 22.808594 45.089844 22.730469 45.253906 22.644531 C 45.425781 22.554688 45.59375 22.460938 45.757812 22.355469 C 45.921875 22.25 46.085938 22.140625 46.238281 22.011719 C 46.3125 21.949219 46.386719 21.882812 46.457031 21.808594 C 46.527344 21.738281 46.597656 21.660156 46.65625 21.570312 C 46.683594 21.523438 46.710938 21.476562 46.734375 21.425781 C 46.757812 21.375 46.777344 21.324219 46.789062 21.265625 C 46.800781 21.207031 46.804688 21.144531 46.796875 21.085938 C 46.796875 21.070312 46.792969 21.054688 46.792969 21.039062 L 46.785156 21.015625 L 46.78125 20.996094 C 46.773438 20.964844 46.761719 20.9375 46.75 20.910156 C 46.722656 20.855469 46.6875 20.804688 46.652344 20.765625 C 46.613281 20.722656 46.570312 20.6875 46.527344 20.65625 C 46.441406 20.59375 46.347656 20.546875 46.257812 20.511719 C 46.070312 20.4375 45.878906 20.394531 45.691406 20.367188 C 45.5 20.335938 45.308594 20.320312 45.117188 20.3125 C 44.929688 20.304688 44.738281 20.304688 44.550781 20.3125 L 44.546875 20.34375 C 44.738281 20.359375 44.925781 20.378906 45.109375 20.40625 C 45.296875 20.429688 45.480469 20.464844 45.664062 20.507812 C 45.753906 20.53125 45.84375 20.554688 45.929688 20.582031 C 46.019531 20.613281 46.105469 20.644531 46.183594 20.683594 C 46.265625 20.722656 46.34375 20.765625 46.40625 20.820312 C 46.472656 20.875 46.523438 20.933594 46.550781 21 C 46.558594 21.019531 46.5625 21.035156 46.566406 21.050781 L 46.570312 21.066406 L 46.570312 21.078125 C 46.574219 21.085938 46.574219 21.09375 46.574219 21.105469 C 46.574219 21.140625 46.570312 21.175781 46.5625 21.210938 C 46.542969 21.285156 46.503906 21.355469 46.453125 21.425781 C 46.402344 21.496094 46.34375 21.5625 46.277344 21.621094 C 46.214844 21.683594 46.144531 21.742188 46.074219 21.800781 C 45.925781 21.910156 45.773438 22.011719 45.613281 22.109375 C 45.453125 22.203125 45.289062 22.292969 45.125 22.375 C 45.039062 22.417969 44.957031 22.460938 44.871094 22.5 C 44.824219 22.523438 44.777344 22.546875 44.726562 22.566406 C 44.691406 22.585938 44.652344 22.601562 44.617188 22.617188 C 44.566406 22.640625 44.515625 22.664062 44.464844 22.683594 C 44.464844 22.6875 44.464844 22.6875 44.464844 22.6875 C 44.460938 22.6875 44.457031 22.6875 44.453125 22.691406 " fill-opacity="1" fill-rule="nonzero"/></g><g clip-path="url(#6e25683144)"><path fill="#1d1d1b" d="M 34.28125 23.726562 C 34.289062 23.785156 34.304688 23.847656 34.328125 23.902344 C 34.355469 23.957031 34.390625 24.003906 34.425781 24.046875 C 34.503906 24.132812 34.589844 24.195312 34.679688 24.246094 C 34.769531 24.296875 34.863281 24.335938 34.957031 24.371094 C 35.050781 24.40625 35.148438 24.429688 35.242188 24.453125 C 35.433594 24.5 35.625 24.53125 35.816406 24.550781 C 35.910156 24.558594 36.007812 24.566406 36.101562 24.574219 C 36.199219 24.578125 36.292969 24.582031 36.390625 24.582031 C 36.539062 24.585938 36.6875 24.582031 36.835938 24.574219 C 36.933594 24.570312 37.03125 24.566406 37.125 24.558594 C 37.261719 24.550781 37.398438 24.539062 37.53125 24.527344 C 37.757812 24.503906 37.984375 24.480469 38.207031 24.449219 C 38.300781 24.441406 38.390625 24.429688 38.480469 24.414062 C 38.542969 24.40625 38.601562 24.398438 38.664062 24.390625 C 39.039062 24.34375 39.414062 24.289062 39.789062 24.226562 C 40.039062 24.1875 40.289062 24.148438 40.539062 24.101562 C 40.613281 24.089844 40.679688 24.078125 40.761719 24.0625 L 40.765625 24.023438 L 40.6875 23.9375 C 40.636719 23.941406 40.585938 23.957031 40.539062 23.972656 L 40.539062 23.96875 C 40.289062 24.03125 40.03125 24.085938 39.773438 24.132812 C 39.402344 24.203125 39.027344 24.261719 38.652344 24.300781 C 38.640625 24.304688 38.625 24.304688 38.613281 24.304688 C 38.601562 24.308594 38.585938 24.308594 38.574219 24.3125 C 38.558594 24.3125 38.546875 24.3125 38.535156 24.316406 C 38.527344 24.316406 38.523438 24.316406 38.515625 24.316406 C 38.507812 24.316406 38.5 24.316406 38.492188 24.320312 C 38.480469 24.320312 38.472656 24.320312 38.464844 24.320312 C 38.453125 24.320312 38.449219 24.324219 38.445312 24.324219 C 38.429688 24.324219 38.410156 24.328125 38.394531 24.328125 C 38.371094 24.328125 38.347656 24.332031 38.324219 24.332031 C 38.300781 24.335938 38.277344 24.335938 38.253906 24.335938 C 38.234375 24.339844 38.210938 24.339844 38.1875 24.339844 C 37.964844 24.363281 37.746094 24.367188 37.523438 24.371094 C 37.367188 24.371094 37.214844 24.371094 37.058594 24.371094 C 36.960938 24.371094 36.863281 24.371094 36.765625 24.363281 C 36.644531 24.363281 36.519531 24.355469 36.398438 24.347656 C 36.351562 24.34375 36.304688 24.34375 36.257812 24.339844 C 36.210938 24.335938 36.164062 24.332031 36.121094 24.328125 C 36.027344 24.320312 35.933594 24.3125 35.84375 24.300781 C 35.65625 24.277344 35.476562 24.25 35.296875 24.210938 C 35.207031 24.191406 35.121094 24.167969 35.035156 24.140625 C 34.949219 24.109375 34.867188 24.078125 34.792969 24.039062 C 34.714844 23.996094 34.644531 23.949219 34.59375 23.894531 C 34.539062 23.835938 34.503906 23.773438 34.496094 23.703125 C 34.484375 23.632812 34.5 23.554688 34.535156 23.476562 C 34.566406 23.402344 34.617188 23.328125 34.671875 23.257812 C 34.726562 23.183594 34.789062 23.117188 34.855469 23.054688 C 34.921875 22.992188 34.996094 22.929688 35.066406 22.871094 C 35.210938 22.753906 35.367188 22.644531 35.523438 22.539062 C 35.683594 22.4375 35.84375 22.339844 36.007812 22.242188 L 35.996094 22.214844 C 35.820312 22.289062 35.648438 22.367188 35.476562 22.457031 C 35.308594 22.542969 35.140625 22.640625 34.980469 22.75 C 34.820312 22.859375 34.667969 22.980469 34.53125 23.132812 C 34.464844 23.207031 34.402344 23.292969 34.351562 23.390625 C 34.328125 23.4375 34.308594 23.492188 34.296875 23.546875 C 34.28125 23.605469 34.277344 23.664062 34.28125 23.726562 " fill-opacity="1" fill-rule="nonzero"/></g><g clip-path="url(#0239ce10fa)"><path fill="#1d1d1b" d="M 44.453125 22.691406 C 44.460938 22.699219 44.464844 22.703125 44.46875 22.710938 C 44.492188 22.742188 44.5 22.773438 44.507812 22.804688 C 44.523438 22.859375 44.519531 22.917969 44.503906 22.96875 C 44.5 22.980469 44.496094 22.988281 44.492188 22.996094 C 44.492188 23 44.492188 23 44.492188 23 C 44.492188 23 44.492188 23 44.496094 22.996094 C 44.515625 22.988281 44.535156 22.980469 44.558594 22.96875 C 44.625 22.941406 44.691406 22.914062 44.753906 22.882812 C 44.925781 22.808594 45.089844 22.730469 45.253906 22.644531 C 45.425781 22.554688 45.59375 22.460938 45.757812 22.355469 C 45.921875 22.25 46.085938 22.140625 46.238281 22.011719 C 46.3125 21.949219 46.386719 21.882812 46.457031 21.808594 C 46.527344 21.738281 46.597656 21.660156 46.65625 21.570312 C 46.683594 21.523438 46.710938 21.476562 46.734375 21.425781 C 46.757812 21.375 46.777344 21.324219 46.789062 21.265625 C 46.800781 21.207031 46.804688 21.144531 46.796875 21.085938 C 46.796875 21.070312 46.792969 21.054688 46.792969 21.039062 L 46.785156 21.015625 L 46.78125 20.996094 C 46.773438 20.964844 46.761719 20.9375 46.75 20.910156 C 46.722656 20.855469 46.6875 20.804688 46.652344 20.765625 C 46.613281 20.722656 46.570312 20.6875 46.527344 20.65625 C 46.441406 20.59375 46.347656 20.546875 46.257812 20.511719 C 46.070312 20.4375 45.878906 20.394531 45.691406 20.367188 C 45.5 20.335938 45.308594 20.320312 45.117188 20.3125 C 44.929688 20.304688 44.738281 20.304688 44.550781 20.3125 L 44.546875 20.34375 C 44.738281 20.359375 44.925781 20.378906 45.109375 20.40625 C 45.296875 20.429688 45.480469 20.464844 45.664062 20.507812 C 45.753906 20.53125 45.84375 20.554688 45.929688 20.582031 C 46.019531 20.613281 46.105469 20.644531 46.183594 20.683594 C 46.265625 20.722656 46.34375 20.765625 46.40625 20.820312 C 46.472656 20.875 46.523438 20.933594 46.550781 21 C 46.558594 21.019531 46.5625 21.035156 46.566406 21.050781 L 46.570312 21.066406 L 46.570312 21.078125 C 46.574219 21.085938 46.574219 21.09375 46.574219 21.105469 C 46.574219 21.140625 46.570312 21.175781 46.5625 21.210938 C 46.542969 21.285156 46.503906 21.355469 46.453125 21.425781 C 46.402344 21.496094 46.34375 21.5625 46.277344 21.621094 C 46.214844 21.683594 46.144531 21.742188 46.074219 21.800781 C 45.925781 21.910156 45.773438 22.011719 45.613281 22.109375 C 45.453125 22.203125 45.289062 22.292969 45.125 22.375 C 45.039062 22.417969 44.957031 22.460938 44.871094 22.5 C 44.824219 22.523438 44.777344 22.546875 44.726562 22.566406 C 44.691406 22.585938 44.652344 22.601562 44.617188 22.617188 C 44.566406 22.640625 44.515625 22.664062 44.464844 22.683594 C 44.464844 22.6875 44.464844 22.6875 44.464844 22.6875 C 44.460938 22.6875 44.457031 22.6875 44.453125 22.691406 " fill-opacity="1" fill-rule="nonzero"/></g><g clip-path="url(#14dde43f6f)"><path fill="#1d1d1b" d="M 34.28125 23.726562 C 34.289062 23.785156 34.304688 23.847656 34.328125 23.902344 C 34.355469 23.957031 34.390625 24.003906 34.425781 24.046875 C 34.503906 24.132812 34.589844 24.195312 34.679688 24.246094 C 34.769531 24.296875 34.863281 24.335938 34.957031 24.371094 C 35.050781 24.40625 35.148438 24.429688 35.242188 24.453125 C 35.433594 24.5 35.625 24.53125 35.816406 24.550781 C 35.910156 24.558594 36.007812 24.566406 36.101562 24.574219 C 36.199219 24.578125 36.292969 24.582031 36.390625 24.582031 C 36.539062 24.585938 36.6875 24.582031 36.835938 24.574219 C 36.933594 24.570312 37.03125 24.566406 37.125 24.558594 C 37.261719 24.550781 37.398438 24.539062 37.53125 24.527344 C 37.757812 24.503906 37.984375 24.480469 38.207031 24.449219 C 38.300781 24.441406 38.390625 24.429688 38.480469 24.414062 C 38.542969 24.40625 38.601562 24.398438 38.664062 24.390625 C 39.039062 24.34375 39.414062 24.289062 39.789062 24.226562 C 40.039062 24.1875 40.289062 24.148438 40.539062 24.101562 C 40.613281 24.089844 40.679688 24.078125 40.761719 24.0625 L 40.765625 24.023438 L 40.6875 23.9375 C 40.636719 23.941406 40.585938 23.960938 40.535156 23.972656 C 40.285156 24.03125 40.027344 24.085938 39.773438 24.136719 C 39.402344 24.207031 39.027344 24.261719 38.652344 24.300781 C 38.625 24.304688 38.601562 24.308594 38.574219 24.3125 C 38.558594 24.3125 38.546875 24.3125 38.535156 24.316406 C 38.527344 24.316406 38.519531 24.316406 38.515625 24.316406 C 38.507812 24.316406 38.496094 24.316406 38.488281 24.320312 C 38.480469 24.320312 38.472656 24.320312 38.460938 24.320312 C 38.457031 24.320312 38.449219 24.324219 38.441406 24.324219 C 38.425781 24.324219 38.410156 24.328125 38.394531 24.328125 C 38.371094 24.328125 38.347656 24.332031 38.324219 24.332031 C 38.300781 24.335938 38.277344 24.335938 38.253906 24.335938 C 38.230469 24.339844 38.210938 24.339844 38.1875 24.339844 C 37.964844 24.363281 37.746094 24.367188 37.523438 24.371094 C 37.367188 24.371094 37.214844 24.371094 37.058594 24.371094 C 36.960938 24.371094 36.863281 24.371094 36.765625 24.363281 C 36.644531 24.363281 36.519531 24.355469 36.398438 24.347656 C 36.351562 24.34375 36.304688 24.34375 36.257812 24.339844 C 36.210938 24.335938 36.164062 24.332031 36.121094 24.328125 C 36.027344 24.320312 35.933594 24.3125 35.84375 24.300781 C 35.65625 24.277344 35.476562 24.25 35.296875 24.210938 C 35.207031 24.191406 35.121094 24.167969 35.035156 24.140625 C 34.949219 24.109375 34.867188 24.078125 34.792969 24.039062 C 34.714844 23.996094 34.644531 23.949219 34.59375 23.894531 C 34.539062 23.835938 34.503906 23.773438 34.496094 23.703125 C 34.484375 23.632812 34.5 23.554688 34.535156 23.476562 C 34.566406 23.402344 34.617188 23.328125 34.671875 23.257812 C 34.726562 23.183594 34.789062 23.117188 34.855469 23.054688 C 34.921875 22.992188 34.996094 22.929688 35.066406 22.871094 C 35.210938 22.753906 35.367188 22.644531 35.523438 22.539062 C 35.683594 22.4375 35.84375 22.339844 36.007812 22.242188 L 35.996094 22.214844 C 35.820312 22.289062 35.648438 22.367188 35.476562 22.457031 C 35.308594 22.542969 35.140625 22.640625 34.980469 22.75 C 34.820312 22.859375 34.667969 22.980469 34.53125 23.132812 C 34.464844 23.207031 34.402344 23.292969 34.351562 23.390625 C 34.328125 23.4375 34.308594 23.492188 34.296875 23.546875 C 34.28125 23.605469 34.277344 23.664062 34.28125 23.726562 " fill-opacity="1" fill-rule="nonzero"/></g><g clip-path="url(#c854b5da0f)"><path fill="#1d1d1b" d="M 40.589844 23.480469 L 40.765625 23.683594 L 40.8125 23.738281 L 40.925781 23.871094 L 40.964844 23.914062 C 40.976562 23.925781 40.988281 23.972656 40.988281 23.988281 L 40.984375 24.019531 C 40.988281 24.019531 40.988281 24.019531 40.988281 24.019531 L 40.988281 24.023438 L 40.964844 24.253906 L 40.9375 24.566406 C 40.933594 24.609375 40.957031 24.632812 40.996094 24.621094 C 41.03125 24.609375 41.070312 24.566406 41.085938 24.523438 L 41.1875 24.210938 L 41.253906 24 L 41.613281 23.894531 L 41.640625 23.886719 L 42.664062 23.589844 L 42.660156 23.628906 L 42.664062 23.628906 L 42.652344 23.867188 L 42.546875 25.277344 C 42.542969 25.304688 42.550781 25.328125 42.574219 25.328125 C 42.582031 25.328125 42.59375 25.328125 42.605469 25.324219 L 42.765625 25.269531 C 42.804688 25.257812 42.84375 25.214844 42.855469 25.175781 L 42.953125 24.800781 C 42.964844 24.804688 42.972656 24.796875 42.984375 24.792969 L 43.054688 24.769531 L 43.074219 24.761719 C 43.113281 24.75 43.136719 24.71875 43.125 24.679688 L 43.117188 24.652344 C 43.113281 24.636719 43.105469 24.625 43.097656 24.617188 C 43.074219 24.597656 43.046875 24.585938 43.019531 24.59375 L 43.003906 24.597656 L 43.09375 24.273438 C 43.101562 24.277344 43.113281 24.28125 43.125 24.277344 L 43.164062 24.265625 L 43.214844 24.246094 C 43.25 24.234375 43.273438 24.191406 43.261719 24.152344 L 43.25 24.125 C 43.242188 24.097656 43.222656 24.078125 43.195312 24.066406 C 43.183594 24.0625 43.167969 24.0625 43.15625 24.066406 L 43.140625 24.070312 L 43.238281 23.703125 L 43.242188 23.6875 L 43.3125 23.429688 L 43.324219 23.394531 L 43.835938 23.25 L 43.839844 23.25 C 43.960938 23.214844 44.171875 23.085938 44.257812 22.96875 C 44.289062 22.929688 44.304688 22.894531 44.296875 22.859375 C 44.289062 22.828125 44.257812 22.808594 44.21875 22.792969 C 44.09375 22.738281 43.84375 22.753906 43.722656 22.789062 C 43.71875 22.789062 43.535156 22.859375 43.261719 22.960938 C 43.253906 22.964844 43.242188 22.96875 43.234375 22.96875 C 43.222656 22.976562 43.207031 22.980469 43.191406 22.984375 L 43.171875 22.96875 L 43.160156 22.960938 L 42.988281 22.816406 L 42.65625 22.539062 L 42.667969 22.535156 C 42.707031 22.523438 42.730469 22.484375 42.714844 22.445312 L 42.707031 22.414062 C 42.695312 22.375 42.65625 22.367188 42.617188 22.378906 L 42.53125 22.40625 C 42.519531 22.410156 42.507812 22.410156 42.5 22.417969 L 42.238281 22.195312 L 42.253906 22.191406 C 42.292969 22.175781 42.316406 22.136719 42.304688 22.101562 L 42.296875 22.070312 C 42.28125 22.03125 42.238281 22.007812 42.199219 22.019531 L 42.109375 22.050781 C 42.097656 22.054688 42.089844 22.058594 42.082031 22.066406 L 41.789062 21.824219 C 41.757812 21.796875 41.699219 21.785156 41.660156 21.796875 L 41.5 21.851562 C 41.460938 21.863281 41.453125 21.902344 41.476562 21.933594 L 42.335938 22.96875 L 42.507812 23.179688 L 42.550781 23.226562 C 42.527344 23.234375 42.507812 23.242188 42.488281 23.25 C 41.9375 23.457031 41.367188 23.671875 41.167969 23.746094 L 41 23.621094 L 40.8125 23.480469 L 40.734375 23.425781 C 40.699219 23.398438 40.644531 23.390625 40.605469 23.402344 C 40.570312 23.414062 40.5625 23.449219 40.589844 23.480469 " fill-opacity="1" fill-rule="nonzero"/><path fill="#1d1d1b" d="M 40.589844 23.480469 L 40.765625 23.683594 L 40.8125 23.738281 L 40.925781 23.871094 L 40.964844 23.914062 C 40.976562 23.925781 40.992188 23.972656 40.988281 23.988281 L 40.988281 24.023438 L 40.964844 24.253906 L 40.9375 24.566406 C 40.933594 24.609375 40.957031 24.632812 40.996094 24.621094 C 41.03125 24.609375 41.070312 24.566406 41.085938 24.523438 L 41.1875 24.210938 L 41.253906 24 L 41.613281 23.894531 L 41.640625 23.886719 L 42.664062 23.589844 L 42.660156 23.628906 L 42.664062 23.628906 L 42.652344 23.867188 L 42.546875 25.277344 C 42.542969 25.304688 42.550781 25.328125 42.574219 25.328125 C 42.582031 25.328125 42.59375 25.328125 42.605469 25.324219 L 42.765625 25.269531 C 42.804688 25.257812 42.84375 25.214844 42.855469 25.175781 L 42.953125 24.800781 C 42.964844 24.804688 42.972656 24.796875 42.984375 24.792969 L 43.054688 24.769531 L 43.074219 24.761719 C 43.113281 24.75 43.136719 24.71875 43.125 24.679688 L 43.117188 24.652344 C 43.113281 24.636719 43.105469 24.625 43.097656 24.617188 C 43.074219 24.597656 43.046875 24.585938 43.019531 24.59375 L 43.003906 24.597656 L 43.09375 24.273438 C 43.101562 24.277344 43.113281 24.28125 43.125 24.277344 L 43.164062 24.265625 L 43.214844 24.246094 C 43.25 24.234375 43.273438 24.191406 43.261719 24.152344 L 43.25 24.125 C 43.242188 24.097656 43.222656 24.078125 43.195312 24.066406 C 43.183594 24.0625 43.167969 24.0625 43.15625 24.066406 L 43.140625 24.070312 L 43.238281 23.703125 L 43.242188 23.6875 L 43.3125 23.429688 L 43.324219 23.394531 L 43.835938 23.25 L 43.839844 23.25 C 43.960938 23.214844 44.171875 23.085938 44.257812 22.96875 C 44.289062 22.929688 44.304688 22.894531 44.296875 22.859375 C 44.289062 22.828125 44.257812 22.808594 44.21875 22.792969 C 44.09375 22.738281 43.84375 22.753906 43.722656 22.789062 C 43.71875 22.789062 43.535156 22.859375 43.261719 22.960938 C 43.253906 22.964844 43.242188 22.96875 43.234375 22.96875 C 43.222656 22.976562 43.207031 22.980469 43.191406 22.984375 L 43.171875 22.96875 L 43.160156 22.960938 L 42.988281 22.816406 L 42.65625 22.539062 L 42.667969 22.535156 C 42.707031 22.523438 42.730469 22.484375 42.714844 22.445312 L 42.707031 22.414062 C 42.695312 22.375 42.65625 22.367188 42.617188 22.378906 L 42.53125 22.40625 C 42.519531 22.410156 42.507812 22.410156 42.5 22.417969 L 42.238281 22.195312 L 42.253906 22.191406 C 42.292969 22.175781 42.316406 22.136719 42.304688 22.101562 L 42.296875 22.070312 C 42.28125 22.03125 42.238281 22.007812 42.199219 22.019531 L 42.109375 22.050781 C 42.097656 22.054688 42.089844 22.058594 42.082031 22.066406 L 41.789062 21.824219 C 41.757812 21.796875 41.699219 21.785156 41.660156 21.796875 L 41.5 21.851562 C 41.460938 21.863281 41.453125 21.902344 41.476562 21.933594 L 42.335938 22.96875 L 42.507812 23.179688 L 42.550781 23.226562 C 42.527344 23.234375 42.507812 23.242188 42.488281 23.25 C 41.9375 23.457031 41.367188 23.671875 41.167969 23.746094 L 41 23.621094 L 40.8125 23.480469 L 40.734375 23.425781 C 40.699219 23.398438 40.644531 23.390625 40.605469 23.402344 C 40.570312 23.414062 40.5625 23.449219 40.589844 23.480469 " fill-opacity="1" fill-rule="nonzero"/></g><g fill="#f65556" fill-opacity="1"><g transform="translate(16.937032, 16.673405)"><g><path d="M -0.984375 -2.4375 C -0.953125 -2.414062 -0.921875 -2.394531 -0.890625 -2.375 L -0.390625 -1.375 L 0.34375 -0.984375 C 0.382812 -0.960938 0.410156 -0.929688 0.421875 -0.890625 C 0.429688 -0.859375 0.425781 -0.828125 0.40625 -0.796875 C 0.382812 -0.753906 0.359375 -0.726562 0.328125 -0.71875 C 0.296875 -0.707031 0.257812 -0.710938 0.21875 -0.734375 L -0.546875 -1.140625 L -1.609375 -0.9375 C -1.671875 -0.9375 -1.71875 -0.945312 -1.75 -0.96875 C -1.78125 -0.976562 -1.796875 -1.003906 -1.796875 -1.046875 C -1.804688 -1.097656 -1.804688 -1.140625 -1.796875 -1.171875 C -1.773438 -1.210938 -1.734375 -1.238281 -1.671875 -1.25 L -0.734375 -1.390625 L -1.15625 -2.25 C -1.1875 -2.289062 -1.191406 -2.332031 -1.171875 -2.375 C -1.148438 -2.40625 -1.117188 -2.425781 -1.078125 -2.4375 C -1.046875 -2.445312 -1.015625 -2.445312 -0.984375 -2.4375 Z M -0.984375 -2.4375 "/></g></g></g><g fill="#f65556" fill-opacity="1"><g transform="translate(18.287999, 14.200499)"><g><path d="M 0.421875 -2.375 C 0.585938 -2.25 0.710938 -2.101562 0.796875 -1.9375 C 0.878906 -1.78125 0.914062 -1.609375 0.90625 -1.421875 C 0.894531 -1.242188 0.828125 -1.078125 0.703125 -0.921875 C 0.585938 -0.765625 0.445312 -0.644531 0.28125 -0.5625 C 0.113281 -0.488281 -0.0625 -0.460938 -0.25 -0.484375 C -0.4375 -0.515625 -0.613281 -0.59375 -0.78125 -0.71875 C -0.9375 -0.832031 -1.054688 -0.972656 -1.140625 -1.140625 C -1.222656 -1.316406 -1.257812 -1.5 -1.25 -1.6875 C -1.25 -1.875 -1.191406 -2.046875 -1.078125 -2.203125 C -0.953125 -2.359375 -0.800781 -2.472656 -0.625 -2.546875 C -0.457031 -2.617188 -0.28125 -2.632812 -0.09375 -2.59375 C 0.09375 -2.5625 0.265625 -2.488281 0.421875 -2.375 Z M 0.234375 -2.140625 C 0.117188 -2.222656 -0.00390625 -2.273438 -0.140625 -2.296875 C -0.285156 -2.316406 -0.414062 -2.300781 -0.53125 -2.25 C -0.644531 -2.207031 -0.742188 -2.132812 -0.828125 -2.03125 C -0.898438 -1.914062 -0.941406 -1.789062 -0.953125 -1.65625 C -0.972656 -1.53125 -0.953125 -1.410156 -0.890625 -1.296875 C -0.828125 -1.179688 -0.734375 -1.078125 -0.609375 -0.984375 C -0.484375 -0.890625 -0.351562 -0.832031 -0.21875 -0.8125 C -0.0820312 -0.789062 0.046875 -0.800781 0.171875 -0.84375 C 0.296875 -0.882812 0.394531 -0.960938 0.46875 -1.078125 C 0.550781 -1.179688 0.59375 -1.300781 0.59375 -1.4375 C 0.601562 -1.570312 0.578125 -1.695312 0.515625 -1.8125 C 0.453125 -1.9375 0.359375 -2.046875 0.234375 -2.140625 Z M 0.234375 -2.140625 "/></g></g></g><g fill="#f65556" fill-opacity="1"><g transform="translate(20.330518, 11.535876)"><g><path d="M -0.265625 -2.734375 C -0.234375 -2.765625 -0.195312 -2.78125 -0.15625 -2.78125 C -0.125 -2.789062 -0.09375 -2.78125 -0.0625 -2.75 L 0.765625 -1.921875 C 0.878906 -1.804688 0.957031 -1.675781 1 -1.53125 C 1.039062 -1.382812 1.039062 -1.242188 1 -1.109375 C 0.957031 -0.972656 0.882812 -0.851562 0.78125 -0.75 C 0.664062 -0.632812 0.539062 -0.554688 0.40625 -0.515625 C 0.269531 -0.472656 0.128906 -0.472656 -0.015625 -0.515625 C -0.160156 -0.554688 -0.289062 -0.632812 -0.40625 -0.75 L -1.234375 -1.578125 C -1.265625 -1.609375 -1.273438 -1.644531 -1.265625 -1.6875 C -1.253906 -1.726562 -1.238281 -1.757812 -1.21875 -1.78125 C -1.195312 -1.8125 -1.164062 -1.828125 -1.125 -1.828125 C -1.082031 -1.835938 -1.046875 -1.828125 -1.015625 -1.796875 L -0.1875 -0.96875 C -0.113281 -0.894531 -0.03125 -0.84375 0.0625 -0.8125 C 0.15625 -0.78125 0.242188 -0.773438 0.328125 -0.796875 C 0.421875 -0.828125 0.503906 -0.878906 0.578125 -0.953125 C 0.640625 -1.015625 0.679688 -1.085938 0.703125 -1.171875 C 0.734375 -1.265625 0.738281 -1.363281 0.71875 -1.46875 C 0.695312 -1.570312 0.648438 -1.660156 0.578125 -1.734375 L -0.25 -2.5625 C -0.28125 -2.59375 -0.296875 -2.617188 -0.296875 -2.640625 C -0.304688 -2.671875 -0.296875 -2.703125 -0.265625 -2.734375 Z M -0.265625 -2.734375 "/></g></g></g><g fill="#f65556" fill-opacity="1"><g transform="translate(22.649498, 9.333119)"><g><path d="M 1.375 -1.3125 C 1.382812 -1.300781 1.398438 -1.289062 1.421875 -1.28125 C 1.453125 -1.269531 1.472656 -1.253906 1.484375 -1.234375 C 1.515625 -1.203125 1.523438 -1.171875 1.515625 -1.140625 C 1.503906 -1.117188 1.484375 -1.09375 1.453125 -1.0625 C 1.410156 -1.039062 1.378906 -1.035156 1.359375 -1.046875 C 1.285156 -1.023438 1.207031 -1.03125 1.125 -1.0625 C 1.050781 -1.101562 0.972656 -1.179688 0.890625 -1.296875 C 0.828125 -1.378906 0.757812 -1.425781 0.6875 -1.4375 C 0.613281 -1.445312 0.535156 -1.421875 0.453125 -1.359375 L -0.046875 -1 L 0.359375 -0.4375 C 0.378906 -0.40625 0.390625 -0.367188 0.390625 -0.328125 C 0.390625 -0.296875 0.375 -0.269531 0.34375 -0.25 C 0.3125 -0.226562 0.269531 -0.210938 0.21875 -0.203125 C 0.175781 -0.203125 0.144531 -0.21875 0.125 -0.25 L -0.96875 -1.71875 C -0.988281 -1.757812 -0.992188 -1.800781 -0.984375 -1.84375 C -0.984375 -1.894531 -0.972656 -1.929688 -0.953125 -1.953125 L -0.265625 -2.453125 C -0.179688 -2.515625 -0.0859375 -2.550781 0.015625 -2.5625 C 0.128906 -2.570312 0.238281 -2.550781 0.34375 -2.5 C 0.445312 -2.457031 0.53125 -2.390625 0.59375 -2.296875 C 0.664062 -2.203125 0.703125 -2.097656 0.703125 -1.984375 C 0.710938 -1.878906 0.695312 -1.78125 0.65625 -1.6875 C 0.75 -1.695312 0.828125 -1.6875 0.890625 -1.65625 C 0.960938 -1.625 1.03125 -1.570312 1.09375 -1.5 C 1.164062 -1.414062 1.21875 -1.359375 1.25 -1.328125 C 1.28125 -1.304688 1.320312 -1.300781 1.375 -1.3125 Z M 0.359375 -1.609375 C 0.398438 -1.640625 0.425781 -1.679688 0.4375 -1.734375 C 0.457031 -1.785156 0.460938 -1.847656 0.453125 -1.921875 C 0.441406 -1.992188 0.410156 -2.0625 0.359375 -2.125 C 0.304688 -2.207031 0.234375 -2.253906 0.140625 -2.265625 C 0.046875 -2.285156 -0.03125 -2.269531 -0.09375 -2.21875 L -0.65625 -1.8125 L -0.203125 -1.203125 Z M 0.359375 -1.609375 "/></g></g></g><g fill="#f65556" fill-opacity="1"><g transform="translate(25.238207, 7.555105)"><g/></g></g><g fill="#f65556" fill-opacity="1"><g transform="translate(26.932139, 6.63947)"><g><path d="M 0.6875 -2.578125 C 0.726562 -2.597656 0.765625 -2.601562 0.796875 -2.59375 C 0.828125 -2.582031 0.847656 -2.554688 0.859375 -2.515625 C 0.878906 -2.472656 0.882812 -2.4375 0.875 -2.40625 C 0.863281 -2.375 0.835938 -2.347656 0.796875 -2.328125 L 0.3125 -2.125 L 0.96875 -0.546875 C 0.976562 -0.515625 0.972656 -0.476562 0.953125 -0.4375 C 0.929688 -0.40625 0.898438 -0.378906 0.859375 -0.359375 C 0.816406 -0.335938 0.773438 -0.332031 0.734375 -0.34375 C 0.703125 -0.363281 0.679688 -0.390625 0.671875 -0.421875 L 0.015625 -2 L -0.46875 -1.796875 C -0.519531 -1.773438 -0.5625 -1.769531 -0.59375 -1.78125 C -0.625 -1.789062 -0.648438 -1.816406 -0.671875 -1.859375 C -0.679688 -1.898438 -0.679688 -1.9375 -0.671875 -1.96875 C -0.660156 -2 -0.628906 -2.023438 -0.578125 -2.046875 Z M 0.6875 -2.578125 "/></g></g></g><g fill="#f65556" fill-opacity="1"><g transform="translate(29.661151, 5.575518)"><g><path d="M 1.75 -0.71875 C 1.769531 -0.695312 1.789062 -0.675781 1.8125 -0.65625 C 1.832031 -0.644531 1.84375 -0.628906 1.84375 -0.609375 C 1.851562 -0.566406 1.847656 -0.53125 1.828125 -0.5 C 1.804688 -0.476562 1.773438 -0.460938 1.734375 -0.453125 C 1.703125 -0.441406 1.675781 -0.441406 1.65625 -0.453125 C 1.582031 -0.472656 1.515625 -0.515625 1.453125 -0.578125 C 1.390625 -0.640625 1.34375 -0.742188 1.3125 -0.890625 C 1.28125 -0.992188 1.226562 -1.054688 1.15625 -1.078125 C 1.09375 -1.109375 1.015625 -1.109375 0.921875 -1.078125 L 0.328125 -0.9375 L 0.5 -0.28125 C 0.507812 -0.238281 0.503906 -0.203125 0.484375 -0.171875 C 0.472656 -0.140625 0.445312 -0.117188 0.40625 -0.109375 C 0.363281 -0.0976562 0.320312 -0.0976562 0.28125 -0.109375 C 0.25 -0.128906 0.226562 -0.160156 0.21875 -0.203125 L -0.234375 -1.96875 C -0.242188 -2.007812 -0.238281 -2.046875 -0.21875 -2.078125 C -0.207031 -2.117188 -0.1875 -2.144531 -0.15625 -2.15625 L 0.6875 -2.375 C 0.78125 -2.394531 0.878906 -2.390625 0.984375 -2.359375 C 1.097656 -2.335938 1.1875 -2.285156 1.25 -2.203125 C 1.320312 -2.117188 1.375 -2.019531 1.40625 -1.90625 C 1.4375 -1.789062 1.4375 -1.679688 1.40625 -1.578125 C 1.375 -1.484375 1.320312 -1.394531 1.25 -1.3125 C 1.332031 -1.289062 1.398438 -1.253906 1.453125 -1.203125 C 1.503906 -1.148438 1.539062 -1.078125 1.5625 -0.984375 C 1.601562 -0.867188 1.632812 -0.789062 1.65625 -0.75 C 1.675781 -0.71875 1.707031 -0.707031 1.75 -0.71875 Z M 0.953125 -1.359375 C 0.984375 -1.367188 1.015625 -1.394531 1.046875 -1.4375 C 1.085938 -1.488281 1.113281 -1.546875 1.125 -1.609375 C 1.144531 -1.679688 1.144531 -1.757812 1.125 -1.84375 C 1.101562 -1.9375 1.050781 -2.003906 0.96875 -2.046875 C 0.894531 -2.097656 0.820312 -2.113281 0.75 -2.09375 L 0.078125 -1.921875 L 0.265625 -1.1875 Z M 0.953125 -1.359375 "/></g></g></g><g fill="#f65556" fill-opacity="1"><g transform="translate(32.728045, 4.896717)"><g><path d="M 0.53125 -0.234375 C 0.53125 -0.179688 0.515625 -0.140625 0.484375 -0.109375 C 0.460938 -0.078125 0.4375 -0.0546875 0.40625 -0.046875 C 0.351562 -0.046875 0.3125 -0.0546875 0.28125 -0.078125 C 0.25 -0.0976562 0.234375 -0.132812 0.234375 -0.1875 L 0 -1.984375 C -0.0078125 -2.023438 -0.00390625 -2.0625 0.015625 -2.09375 C 0.046875 -2.132812 0.0820312 -2.15625 0.125 -2.15625 C 0.164062 -2.164062 0.203125 -2.15625 0.234375 -2.125 C 0.265625 -2.101562 0.285156 -2.070312 0.296875 -2.03125 Z M 0.53125 -0.234375 "/></g></g></g><g fill="#f65556" fill-opacity="1"><g transform="translate(34.607131, 4.684782)"><g><path d="M 1.0625 -2.140625 C 1.175781 -2.140625 1.273438 -2.109375 1.359375 -2.046875 C 1.453125 -1.992188 1.523438 -1.921875 1.578125 -1.828125 C 1.628906 -1.734375 1.660156 -1.625 1.671875 -1.5 C 1.671875 -1.382812 1.644531 -1.269531 1.59375 -1.15625 C 1.539062 -1.050781 1.46875 -0.96875 1.375 -0.90625 C 1.289062 -0.851562 1.191406 -0.828125 1.078125 -0.828125 L 0.515625 -0.828125 L 0.53125 -0.15625 C 0.53125 -0.113281 0.515625 -0.078125 0.484375 -0.046875 C 0.460938 -0.015625 0.429688 0 0.390625 0 C 0.347656 0 0.3125 -0.0078125 0.28125 -0.03125 C 0.257812 -0.0625 0.25 -0.0976562 0.25 -0.140625 L 0.21875 -1.96875 C 0.21875 -2.007812 0.234375 -2.046875 0.265625 -2.078125 C 0.296875 -2.109375 0.328125 -2.125 0.359375 -2.125 Z M 1.078125 -1.109375 C 1.140625 -1.109375 1.191406 -1.125 1.234375 -1.15625 C 1.285156 -1.195312 1.320312 -1.242188 1.34375 -1.296875 C 1.375 -1.359375 1.390625 -1.421875 1.390625 -1.484375 C 1.378906 -1.585938 1.34375 -1.675781 1.28125 -1.75 C 1.21875 -1.820312 1.144531 -1.859375 1.0625 -1.859375 L 0.5 -1.859375 L 0.515625 -1.109375 Z M 1.078125 -1.109375 "/></g></g></g><g fill="#f65556" fill-opacity="1"><g transform="translate(37.510204, 4.733002)"><g/></g></g><g fill="#f65556" fill-opacity="1"><g transform="translate(39.423116, 4.961893)"><g><path d="M 1.515625 -1.84375 C 1.628906 -1.820312 1.722656 -1.769531 1.796875 -1.6875 C 1.878906 -1.613281 1.929688 -1.523438 1.953125 -1.421875 C 1.984375 -1.316406 1.984375 -1.203125 1.953125 -1.078125 C 1.929688 -0.960938 1.882812 -0.859375 1.8125 -0.765625 C 1.75 -0.679688 1.664062 -0.617188 1.5625 -0.578125 C 1.457031 -0.546875 1.347656 -0.539062 1.234375 -0.5625 L 0.6875 -0.6875 L 0.546875 -0.03125 C 0.535156 0.0078125 0.515625 0.0390625 0.484375 0.0625 C 0.453125 0.0820312 0.414062 0.0859375 0.375 0.078125 C 0.34375 0.078125 0.316406 0.0546875 0.296875 0.015625 C 0.273438 -0.015625 0.269531 -0.0507812 0.28125 -0.09375 L 0.671875 -1.875 C 0.679688 -1.914062 0.703125 -1.945312 0.734375 -1.96875 C 0.765625 -1.988281 0.796875 -2 0.828125 -2 Z M 1.296875 -0.828125 C 1.359375 -0.816406 1.414062 -0.820312 1.46875 -0.84375 C 1.53125 -0.875 1.578125 -0.914062 1.609375 -0.96875 C 1.648438 -1.019531 1.675781 -1.078125 1.6875 -1.140625 C 1.707031 -1.242188 1.691406 -1.332031 1.640625 -1.40625 C 1.597656 -1.488281 1.535156 -1.539062 1.453125 -1.5625 L 0.90625 -1.6875 L 0.75 -0.953125 Z M 1.296875 -0.828125 "/></g></g></g><g fill="#f65556" fill-opacity="1"><g transform="translate(42.224288, 5.65834)"><g><path d="M 1.421875 0.21875 C 1.460938 0.238281 1.488281 0.265625 1.5 0.296875 C 1.519531 0.328125 1.523438 0.363281 1.515625 0.40625 C 1.503906 0.4375 1.476562 0.460938 1.4375 0.484375 C 1.40625 0.503906 1.367188 0.503906 1.328125 0.484375 L 0.359375 0.140625 C 0.328125 0.117188 0.300781 0.09375 0.28125 0.0625 C 0.269531 0.03125 0.269531 0 0.28125 -0.03125 L 0.90625 -1.75 C 0.925781 -1.789062 0.957031 -1.820312 1 -1.84375 C 1.039062 -1.863281 1.078125 -1.867188 1.109375 -1.859375 C 1.148438 -1.847656 1.175781 -1.820312 1.1875 -1.78125 C 1.207031 -1.738281 1.207031 -1.695312 1.1875 -1.65625 L 0.609375 -0.078125 Z M 1.421875 0.21875 "/></g></g></g><g fill="#f65556" fill-opacity="1"><g transform="translate(44.767069, 6.659765)"><g><path d="M 1.75 0.703125 C 1.75 0.734375 1.742188 0.757812 1.734375 0.78125 C 1.710938 0.8125 1.679688 0.832031 1.640625 0.84375 C 1.609375 0.863281 1.578125 0.863281 1.546875 0.84375 C 1.523438 0.832031 1.503906 0.804688 1.484375 0.765625 C 1.472656 0.734375 1.472656 0.707031 1.484375 0.6875 L 1.515625 0.203125 L 0.6875 -0.234375 L 0.3125 0.078125 C 0.289062 0.0859375 0.265625 0.0976562 0.234375 0.109375 C 0.210938 0.117188 0.191406 0.117188 0.171875 0.109375 C 0.128906 0.0859375 0.101562 0.0546875 0.09375 0.015625 C 0.0820312 -0.0234375 0.0820312 -0.0546875 0.09375 -0.078125 C 0.101562 -0.0859375 0.117188 -0.0976562 0.140625 -0.109375 L 1.6875 -1.40625 C 1.726562 -1.414062 1.757812 -1.425781 1.78125 -1.4375 C 1.8125 -1.445312 1.84375 -1.4375 1.875 -1.40625 C 1.894531 -1.394531 1.910156 -1.375 1.921875 -1.34375 C 1.941406 -1.320312 1.945312 -1.300781 1.9375 -1.28125 Z M 0.90625 -0.4375 L 1.53125 -0.09375 L 1.640625 -1.015625 Z M 0.90625 -0.4375 "/></g></g></g><g fill="#f65556" fill-opacity="1"><g transform="translate(47.381409, 8.131803)"><g><path d="M 2.75 -0.609375 C 2.769531 -0.585938 2.78125 -0.554688 2.78125 -0.515625 C 2.789062 -0.484375 2.785156 -0.453125 2.765625 -0.421875 L 1.671875 1.046875 C 1.640625 1.085938 1.601562 1.109375 1.5625 1.109375 C 1.53125 1.117188 1.5 1.113281 1.46875 1.09375 C 1.4375 1.070312 1.414062 1.050781 1.40625 1.03125 C 1.394531 1.019531 1.390625 1.003906 1.390625 0.984375 L 1.359375 -0.96875 L 0.484375 0.203125 C 0.460938 0.234375 0.429688 0.25 0.390625 0.25 C 0.359375 0.257812 0.328125 0.25 0.296875 0.21875 C 0.273438 0.207031 0.257812 0.179688 0.25 0.140625 C 0.25 0.109375 0.257812 0.078125 0.28125 0.046875 L 1.375 -1.421875 C 1.40625 -1.460938 1.4375 -1.484375 1.46875 -1.484375 C 1.507812 -1.492188 1.546875 -1.488281 1.578125 -1.46875 C 1.597656 -1.445312 1.613281 -1.425781 1.625 -1.40625 C 1.644531 -1.382812 1.648438 -1.367188 1.640625 -1.359375 L 1.671875 0.609375 L 2.546875 -0.578125 C 2.566406 -0.609375 2.59375 -0.625 2.625 -0.625 C 2.664062 -0.632812 2.707031 -0.628906 2.75 -0.609375 Z M 2.75 -0.609375 "/></g></g></g><g fill="#f65556" fill-opacity="1"><g transform="translate(49.951288, 10.148667)"><g><path d="M 2.796875 -0.171875 C 2.828125 -0.140625 2.84375 -0.109375 2.84375 -0.078125 C 2.84375 -0.046875 2.828125 -0.015625 2.796875 0.015625 L 1.484375 1.296875 C 1.453125 1.335938 1.414062 1.359375 1.375 1.359375 C 1.34375 1.359375 1.3125 1.34375 1.28125 1.3125 C 1.257812 1.289062 1.242188 1.269531 1.234375 1.25 C 1.222656 1.226562 1.21875 1.207031 1.21875 1.1875 L 1.5 -0.734375 L 0.453125 0.28125 C 0.429688 0.3125 0.398438 0.320312 0.359375 0.3125 C 0.328125 0.3125 0.296875 0.296875 0.265625 0.265625 C 0.242188 0.242188 0.234375 0.210938 0.234375 0.171875 C 0.234375 0.140625 0.242188 0.109375 0.265625 0.078125 L 1.578125 -1.203125 C 1.617188 -1.242188 1.65625 -1.257812 1.6875 -1.25 C 1.726562 -1.25 1.757812 -1.234375 1.78125 -1.203125 C 1.8125 -1.179688 1.828125 -1.160156 1.828125 -1.140625 C 1.835938 -1.117188 1.84375 -1.097656 1.84375 -1.078125 L 1.5625 0.859375 L 2.609375 -0.171875 C 2.640625 -0.203125 2.671875 -0.210938 2.703125 -0.203125 C 2.742188 -0.203125 2.773438 -0.191406 2.796875 -0.171875 Z M 2.796875 -0.171875 "/></g></g></g><g fill="#f65556" fill-opacity="1"><g transform="translate(52.171579, 12.55822)"><g><path d="M 1.09375 1 C 1.113281 1.03125 1.117188 1.066406 1.109375 1.109375 C 1.097656 1.160156 1.078125 1.195312 1.046875 1.21875 C 1.015625 1.238281 0.976562 1.242188 0.9375 1.234375 C 0.90625 1.222656 0.878906 1.203125 0.859375 1.171875 L 0.234375 0.3125 C 0.210938 0.289062 0.203125 0.257812 0.203125 0.21875 C 0.203125 0.175781 0.21875 0.144531 0.25 0.125 L 1.734375 -0.953125 C 1.765625 -0.972656 1.800781 -0.976562 1.84375 -0.96875 C 1.894531 -0.96875 1.929688 -0.957031 1.953125 -0.9375 L 2.578125 -0.078125 C 2.597656 -0.046875 2.601562 -0.0078125 2.59375 0.03125 C 2.59375 0.0703125 2.578125 0.101562 2.546875 0.125 C 2.515625 0.15625 2.476562 0.164062 2.4375 0.15625 C 2.394531 0.144531 2.363281 0.125 2.34375 0.09375 L 1.8125 -0.640625 L 1.3125 -0.28125 L 1.75 0.34375 C 1.78125 0.375 1.789062 0.410156 1.78125 0.453125 C 1.78125 0.492188 1.765625 0.523438 1.734375 0.546875 C 1.703125 0.578125 1.664062 0.582031 1.625 0.5625 C 1.59375 0.550781 1.5625 0.53125 1.53125 0.5 L 1.09375 -0.125 L 0.5625 0.265625 Z M 1.09375 1 "/></g></g></g><g fill="#f65556" fill-opacity="1"><g transform="translate(53.760004, 14.851302)"><g><path d="M 1.09375 1.546875 C 1.082031 1.554688 1.070312 1.570312 1.0625 1.59375 C 1.050781 1.625 1.035156 1.644531 1.015625 1.65625 C 0.984375 1.675781 0.953125 1.675781 0.921875 1.65625 C 0.890625 1.644531 0.863281 1.625 0.84375 1.59375 C 0.820312 1.550781 0.816406 1.515625 0.828125 1.484375 C 0.816406 1.421875 0.835938 1.351562 0.890625 1.28125 C 0.941406 1.207031 1.03125 1.132812 1.15625 1.0625 C 1.25 1.007812 1.300781 0.945312 1.3125 0.875 C 1.332031 0.800781 1.320312 0.71875 1.28125 0.625 L 0.984375 0.09375 L 0.375 0.421875 C 0.332031 0.441406 0.296875 0.445312 0.265625 0.4375 C 0.234375 0.425781 0.210938 0.40625 0.203125 0.375 C 0.179688 0.332031 0.171875 0.289062 0.171875 0.25 C 0.171875 0.207031 0.191406 0.175781 0.234375 0.15625 L 1.84375 -0.703125 C 1.882812 -0.722656 1.925781 -0.726562 1.96875 -0.71875 C 2.007812 -0.707031 2.039062 -0.6875 2.0625 -0.65625 L 2.453125 0.109375 C 2.503906 0.203125 2.523438 0.300781 2.515625 0.40625 C 2.515625 0.507812 2.484375 0.609375 2.421875 0.703125 C 2.367188 0.796875 2.289062 0.867188 2.1875 0.921875 C 2.082031 0.972656 1.972656 1 1.859375 1 C 1.753906 1 1.660156 0.96875 1.578125 0.90625 C 1.566406 0.988281 1.539062 1.0625 1.5 1.125 C 1.46875 1.195312 1.410156 1.253906 1.328125 1.296875 C 1.222656 1.359375 1.15625 1.40625 1.125 1.4375 C 1.09375 1.46875 1.082031 1.503906 1.09375 1.546875 Z M 1.53125 0.609375 C 1.550781 0.640625 1.585938 0.664062 1.640625 0.6875 C 1.691406 0.707031 1.753906 0.71875 1.828125 0.71875 C 1.898438 0.726562 1.972656 0.710938 2.046875 0.671875 C 2.128906 0.628906 2.1875 0.5625 2.21875 0.46875 C 2.25 0.382812 2.242188 0.304688 2.203125 0.234375 L 1.875 -0.375 L 1.203125 -0.015625 Z M 1.53125 0.609375 "/></g></g></g><g fill="#ff8d55" fill-opacity="0.4"><g transform="translate(102.176057, 34.229167)"><g><path d="M 7.953125 -12.375 L 10.265625 -12.375 L 6.828125 -4.28125 L 6.828125 0 L 4.53125 0 L 4.53125 -4.28125 L 1.078125 -12.375 L 3.40625 -12.375 L 5.6875 -7 Z M 7.953125 -12.375 "/></g></g></g><g fill="#f65556" fill-opacity="1"><g transform="translate(103.077478, 33.883145)"><g><path d="M 7.953125 -12.375 L 10.265625 -12.375 L 6.828125 -4.28125 L 6.828125 0 L 4.53125 0 L 4.53125 -4.28125 L 1.078125 -12.375 L 3.40625 -12.375 L 5.6875 -7 Z M 7.953125 -12.375 "/></g></g></g></svg>